<svg version="1.1" xmlns="http://www.w3.org/2000/svg" viewBox="0 0 1177.4105515063304 443.5" width="1177.4105515063304" height="443.5">
  <!-- svg-source:excalidraw -->
  
  <defs>
    <style>
      @font-face {
        font-family: "Virgil";
        src: url("https://excalidraw.com/Virgil.woff2");
      }
      @font-face {
        font-family: "Cascadia";
        src: url("https://excalidraw.com/Cascadia.woff2");
      }
    </style>
  </defs>
  <rect x="0" y="0" width="1177.4105515063304" height="443.5" fill="#ffffff"></rect><g stroke-linecap="round" transform="translate(26.94252232142958 193.01158837080237) rotate(0 35.339290345615666 53.6254093970546)"><path d="M-1.14 -1.65 L68.98 0.15 L71.19 106.31 L-1.15 106.67" stroke="none" stroke-width="0" fill="#fff"></path><path d="M0.05 0.05 C27.86 1.4, 55.1 0.5, 69.14 0.52 M-0.47 -0.68 C17.34 -1.09, 34.2 -1.17, 70.78 -0.72 M69.94 -1.64 C72.29 26.37, 69.87 54.84, 70.84 106.12 M69.79 -0.47 C72.07 22.13, 72.08 46.04, 70.61 108.14 M71.37 107.57 C53.41 106.85, 32.15 108.15, 1.49 108.83 M69.99 107.5 C55.37 105.82, 40.27 105.69, 0.22 107.15 M0.74 105.39 C0.39 81, -1.81 54.74, 1.33 -1.02 M-0.09 106.87 C-0.27 65.69, -0.04 25.17, -0.5 -0.37" stroke="#000000" stroke-width="2" fill="none"></path></g><g stroke-linecap="round" transform="translate(19.395089285715358 185.99149908508815) rotate(0 35.339290345615666 53.6254093970546)"><path d="M-1.65 -1.7 L70.83 0.51 L69.74 106.1 L-0.58 106.31" stroke="none" stroke-width="0" fill="#fff"></path><path d="M0.05 1.05 C24.33 1.46, 46.03 -1.56, 71.2 -1.02 M-0.68 -0.26 C15 -0.66, 30.77 0.43, 69.96 -0.52 M69.04 1.23 C70.91 34.78, 72.77 72.1, 69.55 105.47 M70.21 0.86 C71 38.39, 72.27 74.97, 71.57 106.85 M71 108.34 C54.48 105.68, 40.15 108.99, 1.57 105.5 M70.93 106.95 C48.86 106.38, 27.72 106.99, -0.11 106.71 M-1.86 107.62 C1.04 73.41, 1.16 44.54, -1.02 1.64 M-0.38 107.78 C0.25 67.83, 0.7 26.37, -0.37 -0.57" stroke="#000000" stroke-width="2" fill="none"></path></g><g stroke-linecap="round" transform="translate(10 177.73759283508838) rotate(0 35.339290345615666 53.6254093970546)"><path d="M-1.7 0.15 L71.19 -0.94 L69.53 106.67 L-0.94 107.6" stroke="none" stroke-width="0" fill="#fff"></path><path d="M1.05 1.73 C25.92 0.81, 47.35 0.51, 69.66 -1.51 M-0.26 -0.85 C22.58 -0.46, 47.23 -0.24, 70.16 0.35 M71.91 -0.25 C69.1 38.57, 70.44 72.78, 68.9 108.25 M71.54 -0.5 C70.59 41.19, 69.66 81.72, 70.28 106.46 M71.76 106.68 C46 108.09, 26.45 108.94, -1.75 107.2 M70.38 106.45 C55.41 106.5, 41.12 107.32, -0.54 107.24 M0.37 107.38 C-2.22 84.45, 0.93 60.14, 1.64 1.49 M0.53 106.66 C0.86 83.42, -0.41 59.52, -0.57 -0.83" stroke="#000000" stroke-width="2" fill="none"></path></g><g stroke-linecap="round"><g transform="translate(21.986426586910966 226.48482988244103) rotate(0 23.781912611629252 -0.8244725964470092)"><path d="M0.63 1.04 C7.51 1.14, 33.8 1.29, 41.31 0.65 C48.81 0.02, 44.88 -2, 45.66 -2.78 M-0.5 0.53 C6.29 0.27, 32.73 -0.9, 40.83 -1.21 C48.92 -1.51, 47.22 -0.94, 48.07 -1.3" stroke="#000000" stroke-width="1" fill="none"></path></g></g><g stroke-linecap="round"><g transform="translate(23.84167882492534 195.01954258360246) rotate(0 23.001071177821444 -1.4275654627106178)"><path d="M1.04 0.88 C3.92 0.16, 9.85 -3.42, 17.33 -3.73 C24.8 -4.03, 41.33 -1.57, 45.88 -0.94 M0.12 0.3 C2.89 -0.35, 9.11 -2.63, 16.64 -2.67 C24.17 -2.72, 40.65 -0.62, 45.28 0.06" stroke="#000000" stroke-width="1" fill="none"></path></g></g><g stroke-linecap="round"><g transform="translate(23.76507930855587 262.4139168539596) rotate(0 24.54274956985975 -0.13845518899196918)"><path d="M0.88 0.5 C5.03 0.33, 19.47 -0.09, 25.49 0.06 C31.51 0.21, 33.13 1.84, 37.01 1.41 C40.88 0.98, 46.99 -1.91, 48.74 -2.52 M-0.11 -0.29 C4.35 -0.31, 21.71 -2.32, 27.72 -1.9 C33.72 -1.48, 32.34 2.22, 35.92 2.25 C39.5 2.28, 46.97 -1, 49.2 -1.71" stroke="#000000" stroke-width="1" fill="none"></path></g></g><g stroke-linecap="round"><g transform="translate(20.581032127025537 273.6570652622384) rotate(0 27.712050823543223 -1.1308105336343033)"><path d="M0.5 -0.92 C2.07 -1.37, 8.03 -1.86, 10.48 -1.78 C12.93 -1.7, 9.35 -0.7, 15.22 -0.44 C21.09 -0.18, 39.22 0.28, 45.7 -0.2 C52.18 -0.68, 52.85 -2.78, 54.1 -3.32 M-0.7 1.21 C0.65 0.84, 6.64 0.07, 9.7 -0.56 C12.75 -1.19, 11.65 -2.75, 17.64 -2.57 C23.63 -2.4, 39.24 0.62, 45.65 0.47 C52.07 0.32, 54.73 -3.16, 56.13 -3.47" stroke="#000000" stroke-width="1" fill="none"></path></g></g><g stroke-linecap="round"><g transform="translate(20.865875022591354 210.08014413686368) rotate(0 23.2030490185754 0.42457304931139106)"><path d="M-0.92 0.31 C1.86 -0.02, 9.54 -1.67, 17.58 -1.5 C25.62 -1.33, 42.57 0.81, 47.33 1.32 M0.79 -0.57 C3.9 -0.82, 12.31 -0.92, 19.97 -0.44 C27.64 0.05, 42.45 1.86, 46.77 2.35" stroke="#000000" stroke-width="1" fill="none"></path></g></g><g stroke-linecap="round"><g transform="translate(20.973363218741724 244.56347317270325) rotate(0 22.863071275359516 0.21100300157721108)"><path d="M0.31 -0.61 C1.43 -0.15, 4.3 1.96, 7.19 1.83 C10.07 1.7, 11.06 -1.25, 17.63 -1.41 C24.21 -1.57, 41.94 0.5, 46.62 0.86 M-0.98 1.68 C0.46 1.85, 6.5 0.28, 9.42 -0.08 C12.35 -0.45, 10.36 -0.77, 16.57 -0.52 C22.79 -0.27, 41.58 1.25, 46.71 1.43" stroke="#000000" stroke-width="1" fill="none"></path></g></g><g stroke-linecap="round" transform="translate(437.8105515063305 159.5) rotate(0 99 83)"><path d="M101.17 0.89 L196.09 85.82 L99.14 166.46 L0.39 85.42" stroke="none" stroke-width="0" fill="#fab005" fill-rule="evenodd"></path><path d="M101.93 -0.95 C137.97 32.05, 174.37 65.18, 196.07 85.85 M100.5 -0.75 C121.01 18.16, 142.03 36.1, 198.62 84.96 M197.48 84.69 C168.98 109.35, 139.1 134.51, 100.92 165.19 M197.52 84.07 C161.49 114.03, 125.7 144.78, 99.77 165.28 M98.32 165.8 C65.48 137.69, 32.42 108.05, -0.4 82.44 M99.5 166.77 C61.07 134.08, 24.47 103.67, 0.52 83.39 M0.23 82.3 C34.9 55.73, 66.09 28.56, 98.32 -1.31 M-0.74 83.14 C32.22 56.1, 63.76 31.5, 99.03 0.23" stroke="#000000" stroke-width="1" fill="none"></path></g><g transform="translate(479.8105515063305 216.5) rotate(0 57 26)"><text x="57" y="19" font-family="Virgil, Segoe UI Emoji" font-size="20px" fill="#000000" text-anchor="middle" style="white-space: pre;" direction="ltr">Coreference</text><text x="57" y="45" font-family="Virgil, Segoe UI Emoji" font-size="20px" fill="#000000" text-anchor="middle" style="white-space: pre;" direction="ltr">Resolution</text></g><g stroke-linecap="round" transform="translate(213.8105515063305 157.5) rotate(0 99 83)"><path d="M101.2 -1.58 L198.33 83.26 L98.05 167.21 L-1.57 84.96" stroke="none" stroke-width="0" fill="#fab005" fill-rule="evenodd"></path><path d="M99.9 0.53 C136.57 31.8, 177.37 64.91, 198.52 82.68 M100.69 -0.39 C127.1 24.45, 154.67 46.94, 198.56 83.05 M198.2 85.49 C178.43 100.29, 159.14 116.76, 101.36 164.33 M197.57 84.73 C162.15 114.8, 123.99 144.67, 100.43 165.75 M101.3 164.32 C72.92 141.9, 45.71 120.59, -1.86 85.98 M99.7 166.66 C71.9 140.79, 41.69 117.71, 0.12 84.6 M-1.95 83.65 C25.98 58.47, 56.1 35.76, 100.28 1.33 M0.85 83.86 C21.46 66.84, 44.49 47.68, 99.63 -0.74" stroke="#000000" stroke-width="1" fill="none"></path></g><g transform="translate(247.8105515063305 214.5) rotate(0 65 26)"><text x="65" y="19" font-family="Virgil, Segoe UI Emoji" font-size="20px" fill="#000000" text-anchor="middle" style="white-space: pre;" direction="ltr">Named Entity</text><text x="65" y="45" font-family="Virgil, Segoe UI Emoji" font-size="20px" fill="#000000" text-anchor="middle" style="white-space: pre;" direction="ltr"> Resolution</text></g><g stroke-linecap="round" transform="translate(661.8105515063305 158.5) rotate(0 99 83)"><path d="M99.26 -0.41 L196.52 82.98 L101.03 164.29 L-1.96 82.54" stroke="none" stroke-width="0" fill="#fab005" fill-rule="evenodd"></path><path d="M99.65 0.99 C126.45 23.36, 156.79 47.6, 196.84 82.08 M100.3 0.13 C137.56 33.93, 177.76 65.57, 198.69 84.67 M196.24 82.17 C178.48 99.28, 159.43 117.01, 98.02 167.74 M197.82 83.22 C161.08 116.28, 124.25 147.3, 99.33 165.93 M100.42 166.73 C68.21 138.94, 31.44 110.12, -1.68 84.18 M99.58 166.68 C68.04 139.4, 36.18 113.04, 0.94 84.67 M1.91 85.84 C22.93 65.68, 43.46 45.66, 99.11 1.55 M-0.11 83.5 C40.03 51.87, 79.43 16.96, 99.02 -0.41" stroke="#000000" stroke-width="1" fill="none"></path></g><g transform="translate(703.8105515063305 215.5) rotate(0 57 26)"><text x="57" y="19" font-family="Virgil, Segoe UI Emoji" font-size="20px" fill="#000000" text-anchor="middle" style="white-space: pre;" direction="ltr">Relationship</text><text x="57" y="45" font-family="Virgil, Segoe UI Emoji" font-size="20px" fill="#000000" text-anchor="middle" style="white-space: pre;" direction="ltr">Extraction</text></g><g stroke-linecap="round" transform="translate(978.4105515063304 159.5) rotate(0 94.5 86.5)"><path d="M78.24 0.9 C89.89 -2.39, 105.5 -0.94, 117.93 1.86 C130.36 4.66, 142.8 10.28, 152.83 17.7 C162.86 25.11, 172.18 36.11, 178.11 46.36 C184.05 56.61, 187.5 67.91, 188.42 79.19 C189.34 90.47, 187.82 102.96, 183.62 114.04 C179.42 125.13, 171.94 137.16, 163.24 145.7 C154.53 154.23, 142.87 160.81, 131.39 165.26 C119.91 169.72, 106.8 172.57, 94.34 172.46 C81.89 172.34, 68.35 169.3, 56.66 164.58 C44.98 159.85, 32.97 152.72, 24.25 144.13 C15.52 135.54, 8.25 123.82, 4.32 113.03 C0.39 102.24, -0.63 90.71, 0.67 79.38 C1.97 68.05, 6.14 55.27, 12.12 45.04 C18.1 34.8, 26.52 25.19, 36.55 17.99 C46.57 10.79, 63.77 4.61, 72.28 1.81 C80.78 -0.98, 83.54 1.08, 87.58 1.21 C91.61 1.34, 96.22 1.21, 96.5 2.61 M119.76 2.33 C131.39 4.28, 144.78 11.86, 154.75 19.72 C164.72 27.57, 173.72 38.75, 179.59 49.46 C185.45 60.17, 189.37 72.43, 189.93 83.98 C190.5 95.53, 187.75 108.18, 182.99 118.75 C178.24 129.32, 170.38 139.29, 161.41 147.38 C152.45 155.47, 140.82 163.24, 129.21 167.28 C117.61 171.33, 104.3 172.26, 91.78 171.66 C79.25 171.05, 65.5 168.65, 54.04 163.67 C42.58 158.7, 31.56 150.71, 23.03 141.8 C14.5 132.88, 6.61 121.28, 2.86 110.17 C-0.9 99.06, -1.08 86.33, 0.5 75.13 C2.08 63.92, 5.81 52.81, 12.35 42.95 C18.9 33.1, 29.07 22.77, 39.76 16.01 C50.46 9.26, 64.28 5.02, 76.51 2.42 C88.74 -0.17, 105.79 0.03, 113.13 0.47 C120.47 0.9, 119.18 4.38, 120.52 5.01 C121.86 5.65, 121.4 3.04, 121.18 4.27" stroke="none" stroke-width="0" fill="#40c057"></path><path d="M118.21 1.86 C130.24 3.61, 144.19 12.22, 154.05 19.59 C163.9 26.95, 171.69 36.07, 177.33 46.06 C182.97 56.05, 186.99 67.81, 187.91 79.52 C188.83 91.23, 186.86 105.2, 182.85 116.32 C178.83 127.44, 172.45 137.81, 163.83 146.26 C155.21 154.7, 142.75 162.48, 131.12 166.99 C119.49 171.51, 106.53 173.64, 94.04 173.36 C81.56 173.07, 67.97 170.11, 56.22 165.29 C44.47 160.48, 32.05 153.11, 23.54 144.48 C15.03 135.85, 9.13 124.65, 5.18 113.53 C1.22 102.41, -1.18 89.39, -0.19 77.76 C0.81 66.14, 4.97 53.93, 11.15 43.78 C17.34 33.62, 26.56 23.57, 36.91 16.81 C47.25 10.06, 60.96 5.68, 73.22 3.22 C85.47 0.77, 101.06 1.75, 110.46 2.09 C119.86 2.42, 125.15 3.65, 129.63 5.23 C134.12 6.81, 138.11 10.13, 137.37 11.57 M108.35 2.27 C120.25 2.53, 132.7 7.09, 143.45 12.76 C154.21 18.43, 165.61 26.62, 172.89 36.3 C180.17 45.97, 184.79 59.1, 187.12 70.81 C189.44 82.52, 189.85 95.16, 186.85 106.56 C183.85 117.95, 176.7 130.21, 169.1 139.18 C161.5 148.15, 152.23 154.58, 141.26 160.37 C130.29 166.16, 115.67 172.64, 103.27 173.92 C90.88 175.2, 78.89 171.73, 66.89 168.04 C54.88 164.36, 41.07 159.21, 31.22 151.82 C21.36 144.44, 13.13 134.16, 7.77 123.75 C2.41 113.34, -0.65 101.14, -0.93 89.36 C-1.2 77.58, 1.18 64.07, 6.13 53.06 C11.08 42.05, 19.46 31.45, 28.77 23.3 C38.09 15.16, 50.1 7.94, 62 4.19 C73.9 0.45, 92.7 1.61, 100.17 0.84 C107.64 0.06, 105.65 -0.9, 106.8 -0.45 C107.96 0.01, 107.24 1.81, 107.11 3.55" stroke="#000000" stroke-width="1" fill="none"></path></g><g transform="translate(1021.4105515063304 220) rotate(0 51.5 26)"><text x="51.5" y="19" font-family="Virgil, Segoe UI Emoji" font-size="20px" fill="#000000" text-anchor="middle" style="white-space: pre;" direction="ltr">Knowledge </text><text x="51.5" y="45" font-family="Virgil, Segoe UI Emoji" font-size="20px" fill="#000000" text-anchor="middle" style="white-space: pre;" direction="ltr">Graph</text></g><g stroke-linecap="round"><g transform="translate(114.8105515063304 239.62963818718242) rotate(0 39.37937828703423 -0.059565543554100486)"><path d="M-0.62 0.08 C12.69 0, 65.87 -0.24, 79.38 -0.26 M1.25 -0.93 C14.46 -0.89, 65.3 0.51, 78.48 0.81" stroke="#000000" stroke-width="1" fill="none"></path></g><g transform="translate(114.8105515063304 239.62963818718242) rotate(0 39.37937828703423 -0.059565543554100486)"><path d="M50.17 10.5 C55.88 9.98, 63.54 5.77, 77.46 0.39 M49.81 10.59 C55.61 7.09, 62.2 5.75, 78.8 0.15" stroke="#000000" stroke-width="1" fill="none"></path></g><g transform="translate(114.8105515063304 239.62963818718242) rotate(0 39.37937828703423 -0.059565543554100486)"><path d="M50.68 -10.01 C56.29 -5.24, 63.83 -4.15, 77.46 0.39 M50.33 -9.93 C56 -9.1, 62.47 -6.12, 78.8 0.15" stroke="#000000" stroke-width="1" fill="none"></path></g></g><g stroke-linecap="round"><g transform="translate(874.8105515063305 242) rotate(0 38.24705436731688 0.2961551966238858)"><path d="M1.2 -0.8 C13.69 -0.46, 63.72 1.18, 76.13 1.39 M0.37 1.39 C12.61 1.42, 62.86 -0.54, 75.25 -0.53" stroke="#000000" stroke-width="1" fill="none"></path></g><g transform="translate(874.8105515063305 242) rotate(0 38.24705436731688 0.2961551966238858)"><path d="M45.95 10.55 C59.11 5.15, 68.63 -0.26, 76.79 -2.14 M47.42 9.95 C54.7 8.29, 62.24 3.71, 75.15 0.19" stroke="#000000" stroke-width="1" fill="none"></path></g><g transform="translate(874.8105515063305 242) rotate(0 38.24705436731688 0.2961551966238858)"><path d="M45.51 -9.97 C58.73 -7.21, 68.43 -4.47, 76.79 -2.14 M46.98 -10.56 C54.44 -6.73, 62.1 -5.81, 75.15 0.19" stroke="#000000" stroke-width="1" fill="none"></path></g></g><g transform="translate(424.7052757531653 10) rotate(0 145 23)"><text x="0" y="33" font-family="Virgil, Segoe UI Emoji" font-size="36px" fill="#000000" text-anchor="start" style="white-space: pre;" direction="ltr">Knowledge Graph</text></g><g transform="translate(688.7052757531653 367) rotate(0 81.5 13)"><text x="0" y="19" font-family="Virgil, Segoe UI Emoji" font-size="20px" fill="#000000" text-anchor="start" style="white-space: pre;" direction="ltr">vector similarity!</text></g><g transform="translate(233.20527575316532 362.5) rotate(0 74.5 26)"><text x="0" y="19" font-family="Virgil, Segoe UI Emoji" font-size="20px" fill="#000000" text-anchor="start" style="white-space: pre;" direction="ltr">Rules</text><text x="0" y="45" font-family="Virgil, Segoe UI Emoji" font-size="20px" fill="#000000" text-anchor="start" style="white-space: pre;" direction="ltr">Custom trained</text></g><g transform="translate(690.2052757531653 407.5) rotate(0 31.5 13)"><text x="0" y="19" font-family="Virgil, Segoe UI Emoji" font-size="20px" fill="#000000" text-anchor="start" style="white-space: pre;" direction="ltr">pruning</text></g></svg>